<svg
  width="41"
  height="41"
  viewBox="0 0 41 41"
  fill="none"
  xmlns="http://www.w3.org/2000/svg"
>
  <path
    d="M5.55691 0.380764C5.01185 0.423077 4.35727 0.576145 3.84705 0.780231C3.66536 0.853653 3.26714 1.04654 3.10661 1.13863C2.51923 1.47837 1.97044 1.94503 1.49879 2.50877C1.09062 2.99534 0.713552 3.68228 0.499509 4.32441C0.343954 4.79232 0.254354 5.22539 0.213288 5.71197C0.19711 5.91481 0.195866 34.9216 0.213288 35.1306C0.260577 35.713 0.392487 36.2817 0.605286 36.8231C0.72973 37.1417 0.981107 37.617 1.18395 37.9182C1.85844 38.9212 2.85523 39.7052 3.98394 40.1246C4.4954 40.3137 4.97202 40.4195 5.53327 40.4693C5.73611 40.4867 7.14606 40.488 20.3483 40.4855L34.9394 40.4817L35.1945 40.4481C36.1863 40.3175 36.9827 40.0163 37.7954 39.4663C38.4537 39.0208 39.0547 38.3873 39.4704 37.7004C39.9769 36.8641 40.2519 35.9756 40.3091 34.9937C40.3191 34.822 40.3216 30.7701 40.3191 20.2657C40.3153 6.53703 40.3141 5.76423 40.2929 5.59374C40.222 5.00761 40.1001 4.50983 39.9084 4.02575C39.728 3.57028 39.4081 3.00654 39.1157 2.63197C38.1961 1.4485 36.8944 0.67321 35.4434 0.441742C35.3575 0.428055 35.2156 0.406898 35.126 0.395699C34.9742 0.37579 34.077 0.374542 20.3234 0.372055C12.2707 0.370811 5.6266 0.374542 5.55691 0.380764ZM21.2132 4.01454C21.5206 4.04565 21.9673 4.14148 22.2299 4.23232C23.1894 4.56708 23.9945 5.1893 24.5508 6.0293C24.9366 6.61294 25.1742 7.26006 25.2713 7.99801C25.2974 8.19836 25.3074 8.71979 25.29 8.95374C25.2402 9.60957 25.066 10.2268 24.781 10.752C24.567 11.1477 24.3927 11.4028 24.1526 11.6753C23.4445 12.4755 22.5447 12.9895 21.5181 13.1799C21.3264 13.2147 21.0601 13.2471 20.9556 13.2471H20.8834V15.9525V18.6579L20.968 18.6654C21.0141 18.6704 21.1472 18.6928 21.263 18.7164C22.3568 18.9342 23.2939 19.5066 24.002 20.3914C24.053 20.4561 24.1563 20.6005 24.231 20.7137C24.3056 20.827 24.3741 20.929 24.3828 20.9402C24.4002 20.9626 24.445 20.939 26.8194 19.6261C27.2836 19.3685 29.1005 18.3667 29.1303 18.3505C29.1403 18.3456 29.1291 18.307 29.0942 18.2249C28.752 17.4073 28.6612 16.4353 28.8429 15.5306C29.0494 14.499 29.6231 13.5582 30.4656 12.8663C30.8178 12.5776 31.2932 12.3013 31.7113 12.1433C32.8263 11.7201 34.0446 11.7239 35.1136 12.1545C35.9449 12.4892 36.6617 13.0579 37.1756 13.7884C37.7506 14.6073 38.0281 15.5456 38.0032 16.576C37.9957 16.8771 37.9858 16.9891 37.9434 17.2393C37.8912 17.5504 37.7792 17.9473 37.6634 18.2224C37.6336 18.2933 37.6112 18.3568 37.6149 18.3617C37.6224 18.3742 37.4133 18.7475 37.2938 18.9342C36.7338 19.809 35.9287 20.4599 34.9667 20.8145C34.6494 20.9315 34.1491 21.0448 33.8343 21.0697C33.7746 21.0746 33.7223 21.0833 33.7186 21.0883C33.7099 21.1033 33.1685 21.102 33.0739 21.0883C33.0316 21.0821 32.9333 21.0697 32.8549 21.0622C32.382 21.0137 31.8432 20.8606 31.3927 20.6465C30.661 20.2981 29.9716 19.7045 29.536 19.0462C29.4974 18.9877 29.4651 18.9392 29.4626 18.9367C29.4613 18.9342 29.3108 19.0138 29.1291 19.1134C28.9474 19.2142 28.7831 19.3025 28.7645 19.31C28.7445 19.3187 28.2791 19.5738 27.7278 19.8787C27.1766 20.1824 26.639 20.4785 26.5332 20.537C25.9844 20.8382 24.6964 21.5513 24.6902 21.5587C24.6852 21.5625 24.7175 21.672 24.7599 21.8026C24.9241 22.2967 24.9913 22.7248 24.9913 23.2711C24.9913 23.8883 24.8793 24.462 24.6479 25.0208C24.6105 25.1104 24.5831 25.1888 24.5869 25.195C24.5993 25.2161 24.3517 25.6405 24.2048 25.8496C24.0082 26.1283 23.8838 26.2764 23.6473 26.5166C23.1359 27.038 22.5286 27.4138 21.8105 27.6553C21.1112 27.8905 20.2811 27.9477 19.5394 27.8121C18.3161 27.5881 17.2609 26.9024 16.5378 25.8595C16.391 25.648 16.1234 25.1253 16.0202 24.8453C15.6555 23.8672 15.6269 22.782 15.9393 21.8176C15.9629 21.7429 15.9803 21.6807 15.9778 21.6782C15.9729 21.6732 11.2564 18.9753 11.2141 18.9529C11.183 18.9367 11.1805 18.9379 11.0934 19.0686C10.6529 19.7219 9.96969 20.3081 9.25787 20.6441C8.69663 20.9091 8.0881 21.0597 7.4833 21.0858C6.32348 21.1331 5.25327 20.7834 4.35851 20.0629C4.05736 19.8215 3.68403 19.422 3.48741 19.1333C3.32687 18.8969 2.93612 18.1203 2.85648 17.8777C2.76065 17.5865 2.67977 17.1745 2.65114 16.8249C2.63123 16.5834 2.64368 16.0944 2.67603 15.8529C2.74697 15.3278 2.89754 14.8449 3.13772 14.3733C3.37416 13.9079 3.62803 13.5619 4.01505 13.1774C4.83389 12.3623 5.90411 11.8906 7.04526 11.8421C7.6513 11.8172 8.19512 11.8931 8.7489 12.0785C10.0033 12.4979 11.0436 13.4736 11.5501 14.7043C11.7094 15.0913 11.8102 15.4846 11.8687 15.9537C11.8961 16.1653 11.8998 16.7153 11.8762 16.9244C11.8252 17.3774 11.7119 17.8316 11.5576 18.2049L11.5053 18.3319L13.876 19.6883C15.1789 20.4337 16.2504 21.0435 16.2566 21.0435C16.2616 21.0435 16.2952 20.9925 16.33 20.9315C16.6362 20.3939 17.0655 19.9111 17.5745 19.529C18.2875 18.9939 19.1798 18.6691 20.0472 18.6281L20.2239 18.6193V15.9276V13.2371L20.1592 13.2284C19.5693 13.1562 19.0902 13.0119 18.5825 12.7555C18.1133 12.5191 17.7213 12.2279 17.3368 11.8334C16.9647 11.4513 16.7967 11.2 16.4769 10.5541C16.3064 10.2106 16.2118 9.93312 16.1284 9.52743C16.0251 9.02717 16.0164 8.37757 16.106 7.85241C16.213 7.22272 16.4433 6.63659 16.7954 6.09774C17.1625 5.5365 17.6641 5.0437 18.2191 4.69899C18.8674 4.29579 19.5519 4.07179 20.3048 4.0133C20.4006 4.00583 20.5039 3.99837 20.535 3.99588C20.6246 3.98841 21.0763 4.00085 21.2132 4.01454ZM7.49699 34.0081C7.77574 34.5433 7.9649 34.9029 7.96863 34.9066C7.97112 34.9079 8.28348 34.9477 8.66303 34.9925C9.04258 35.0385 9.36614 35.0784 9.38232 35.0821C9.42338 35.0908 9.41592 35.1132 9.35245 35.1742C9.32134 35.2053 9.09485 35.4355 8.84845 35.6857L8.40294 36.1411L8.53859 36.8405C8.6145 37.225 8.67547 37.5424 8.67547 37.5449C8.67547 37.5486 8.6705 37.5511 8.66427 37.5511C8.65681 37.5511 8.36561 37.408 8.01468 37.2337C7.66374 37.0595 7.37379 36.9164 7.37006 36.9164C7.36632 36.9164 7.07761 37.0732 6.72793 37.2636C6.37948 37.4553 6.08828 37.6071 6.08331 37.6021C6.07833 37.5971 6.12188 37.2773 6.18037 36.8903C6.23886 36.5045 6.28491 36.1822 6.28366 36.1747C6.28117 36.1673 6.04224 35.9408 5.75229 35.6707C5.31176 35.2625 5.22838 35.1804 5.24829 35.1729C5.26073 35.1667 5.58553 35.112 5.96882 35.0497C6.35086 34.9875 6.6657 34.9353 6.66695 34.934C6.66944 34.9303 7.1921 33.8265 7.23939 33.7207C7.26304 33.6721 7.28544 33.6311 7.29041 33.6311C7.29664 33.6311 7.38872 33.8003 7.49699 34.0081ZM14.1323 34.2782C14.3091 34.6167 14.4571 34.8979 14.4609 34.9017C14.4646 34.9066 14.777 34.9477 15.1528 34.9925C15.9169 35.0846 15.9057 35.0833 15.9057 35.1033C15.9057 35.112 15.7738 35.2501 15.612 35.4106C15.4514 35.5712 15.2237 35.8026 15.108 35.9233L14.8964 36.1424L15.0333 36.843C15.1092 37.2288 15.1677 37.5461 15.1652 37.5498C15.1615 37.5523 14.8678 37.4117 14.5131 37.2362C14.1572 37.0595 13.8648 36.9164 13.8623 36.9164C13.8598 36.9164 13.5723 37.0732 13.2227 37.2636C12.8742 37.4553 12.5843 37.6058 12.5793 37.6009C12.5731 37.5959 12.6166 37.2711 12.6763 36.8791C12.7361 36.4883 12.7821 36.166 12.7796 36.1648C12.7597 36.1498 11.7368 35.1978 11.7306 35.1879C11.7206 35.1705 11.6895 35.1767 12.471 35.0485C12.8506 34.9863 13.1617 34.9353 13.1629 34.934C13.1629 34.9328 13.2675 34.71 13.3956 34.44C13.5226 34.1699 13.6607 33.8762 13.703 33.7879C13.7665 33.6522 13.7814 33.6298 13.7951 33.6448C13.8038 33.6547 13.9556 33.9397 14.1323 34.2782ZM20.2475 34.262C20.423 34.5955 20.5723 34.878 20.5785 34.8892C20.5885 34.9054 20.7204 34.9253 21.2816 34.9925C21.6612 35.0385 21.9848 35.0784 22.0009 35.0821C22.0159 35.0846 22.0283 35.0945 22.0283 35.1033C22.0283 35.112 21.9574 35.1879 21.8715 35.2737C21.7856 35.3596 21.5592 35.5898 21.3675 35.7852L21.0203 36.1424L21.1572 36.843C21.2319 37.2275 21.2916 37.5461 21.2879 37.5486C21.2841 37.5523 20.9892 37.4117 20.632 37.235L19.9837 36.9152L19.3478 37.2636C18.9981 37.454 18.7069 37.6071 18.7019 37.6009C18.6957 37.5959 18.7405 37.2723 18.8002 36.8816L18.9073 36.1697L18.8164 36.0851C18.7654 36.0378 18.5265 35.8163 18.2838 35.5911C17.9142 35.2476 17.847 35.1804 17.8669 35.1729C17.8793 35.1667 18.2041 35.112 18.5874 35.0497C18.9707 34.9875 19.2843 34.9353 19.2856 34.934C19.2881 34.9303 19.7746 33.8986 19.8468 33.7443C19.8866 33.6585 19.9053 33.6311 19.9152 33.641C19.9227 33.6485 20.072 33.9285 20.2475 34.262ZM26.7074 34.2869C26.8866 34.6316 27.0409 34.9129 27.0484 34.9129C27.0695 34.9129 28.4148 35.0746 28.4471 35.0821C28.4621 35.0846 28.4745 35.0945 28.4745 35.1033C28.4745 35.112 28.3986 35.1941 28.3053 35.2862C28.2132 35.3783 27.9854 35.6085 27.8013 35.7977L27.4665 36.1424L27.6034 36.843C27.6781 37.2275 27.7378 37.5461 27.7341 37.5486C27.7303 37.5523 27.4366 37.4105 27.0795 37.235L26.4311 36.9152L25.794 37.2624C25.4443 37.454 25.1531 37.6071 25.1481 37.6009C25.1419 37.5959 25.1867 37.2723 25.2464 36.8816L25.3534 36.1697L25.2626 36.0851C25.2116 36.0378 24.9727 35.8163 24.73 35.5911C24.3604 35.2476 24.2932 35.1804 24.3131 35.1729C24.3255 35.1667 24.6503 35.112 25.0336 35.0497C25.4169 34.9875 25.7305 34.9353 25.7318 34.934C25.7342 34.9303 26.2208 33.8986 26.293 33.7443C26.339 33.6448 26.3502 33.6298 26.3639 33.6448C26.3726 33.6547 26.5282 33.9434 26.7074 34.2869ZM32.998 34.2695L33.3328 34.9091L33.446 34.9228C33.9463 34.9813 34.7203 35.0771 34.744 35.0821C34.7589 35.0846 34.7714 35.0958 34.7714 35.1057C34.7714 35.1157 34.5449 35.3521 34.2686 35.6309L33.7659 36.1386L33.9027 36.8393C33.9787 37.225 34.0371 37.5436 34.0322 37.5473C34.0284 37.5511 33.7347 37.4105 33.3788 37.2337L32.7342 36.9127L32.0946 37.2624C31.7424 37.4553 31.4512 37.6083 31.4462 37.6033C31.4412 37.5984 31.4848 37.2835 31.5433 36.904C31.6005 36.5244 31.6478 36.2033 31.6478 36.1884C31.6478 36.171 31.4836 36.0105 31.1177 35.672C30.6859 35.2725 30.5913 35.1792 30.61 35.1717C30.6236 35.1667 30.9136 35.1182 31.2558 35.0622C31.598 35.0074 31.9129 34.9564 31.954 34.9489L32.0311 34.9353L32.3385 34.2832C32.509 33.9248 32.6508 33.6311 32.6558 33.6311C32.6595 33.6311 32.8139 33.9185 32.998 34.2695Z"
    fill="#AA0000"
  />
  <path
    d="M20.4204 5.01512C20.4179 5.01885 20.3893 5.02632 20.3594 5.03254C19.9587 5.11716 19.6513 5.30009 19.3838 5.61244C19.3427 5.65973 19.3054 5.7008 19.3004 5.70329C19.2942 5.70578 19.2904 5.71324 19.2904 5.71822C19.2904 5.72444 19.2593 5.78044 19.222 5.84391C19.1846 5.90613 19.1535 5.96462 19.1535 5.97208C19.1535 5.9808 19.1486 5.992 19.1423 5.99822C19.115 6.02808 19.0453 6.23839 19.0142 6.38399C18.9955 6.46737 18.9955 6.92283 19.0129 7.02487C19.0353 7.14931 19.0926 7.34718 19.1361 7.44549C19.1971 7.58362 19.2444 7.6782 19.2892 7.75286C19.3178 7.79891 19.3402 7.84122 19.3402 7.8462C19.3402 7.85242 19.3439 7.85864 19.3502 7.86113C19.3551 7.86237 19.3912 7.90717 19.4298 7.95944C19.5032 8.0565 19.6725 8.23197 19.7583 8.30166C19.8218 8.35143 19.9836 8.45597 19.9998 8.45597C20.0072 8.45597 20.0122 8.4597 20.0122 8.46592C20.0122 8.4709 20.0309 8.4821 20.0533 8.49081C20.0744 8.50077 20.1155 8.51819 20.1429 8.53063C20.2238 8.56796 20.3718 8.61774 20.4042 8.61774C20.4204 8.61774 20.4378 8.62272 20.4415 8.63019C20.454 8.64885 20.8373 8.64636 20.9331 8.62521C21.0911 8.59161 21.2442 8.54308 21.2753 8.5157C21.2815 8.51072 21.2927 8.50574 21.3014 8.50574C21.3301 8.50574 21.5142 8.38628 21.63 8.29295C21.7532 8.19464 21.8838 8.06273 21.9486 7.97686C21.9685 7.94948 21.9921 7.91962 22.0008 7.90966C22.0108 7.89971 22.0357 7.86237 22.0568 7.82504C22.0792 7.78771 22.1091 7.73669 22.124 7.7118C22.1701 7.63713 22.2472 7.47162 22.2758 7.38576C22.2908 7.34096 22.3082 7.29367 22.3144 7.27998C22.3206 7.26629 22.3281 7.23767 22.3331 7.21776C22.3368 7.1966 22.3455 7.15803 22.3518 7.13065C22.4028 6.91785 22.4152 6.64034 22.3816 6.44621C22.3717 6.38399 22.3592 6.31306 22.3555 6.28693C22.3518 6.26204 22.3443 6.23715 22.3381 6.23341C22.3318 6.22968 22.3269 6.21475 22.3269 6.19857C22.3269 6.18364 22.3219 6.16622 22.3157 6.15875C22.3094 6.15253 22.2982 6.12515 22.2895 6.09777C22.2659 6.02311 22.1676 5.83644 22.0966 5.73191C22.017 5.61369 21.742 5.33245 21.7071 5.33245C21.7009 5.33245 21.6885 5.32374 21.6798 5.31378C21.671 5.30383 21.6325 5.27769 21.5939 5.25529C21.5553 5.23414 21.5217 5.21298 21.518 5.20925C21.4968 5.18561 21.2815 5.0985 21.1633 5.06614C21.0949 5.04747 21.0214 5.02632 21.0003 5.0201C20.9617 5.0089 20.4316 5.00392 20.4204 5.01512Z"
    fill="#AA0000"
  />
  <path
    d="M19.2882 8.71222C19.2845 8.71595 19.2459 8.72715 19.2024 8.73711C19.1588 8.74707 19.0754 8.7732 19.017 8.79311C18.9585 8.81427 18.9 8.83418 18.8863 8.83916C18.8577 8.84663 18.6971 8.93001 18.6312 8.97107C18.6075 8.98476 18.5727 9.00592 18.554 9.01588C18.4893 9.05072 18.3101 9.1901 18.2205 9.27348C17.9716 9.50745 17.7787 9.78621 17.6618 10.0861C17.6381 10.1446 17.612 10.2081 17.6033 10.2292C17.5958 10.2492 17.5846 10.2828 17.5796 10.3039C17.5759 10.3238 17.5672 10.3637 17.561 10.391C17.5373 10.4893 17.5211 10.5789 17.5112 10.681C17.505 10.7382 17.4925 10.7967 17.4826 10.8117C17.4726 10.8266 17.4614 10.859 17.4564 10.8838C17.449 10.9262 17.4539 10.9361 17.5572 11.0643C17.617 11.139 17.7339 11.2672 17.8161 11.3493C17.9965 11.531 18.0363 11.5671 18.2242 11.7164C18.2379 11.7264 18.2554 11.7413 18.2628 11.7488C18.2952 11.7786 18.6274 11.9989 18.6623 12.0138C18.6698 12.0163 18.6884 12.0288 18.7058 12.04C18.7531 12.0723 19.0394 12.2142 19.1601 12.2652C19.4002 12.366 19.7698 12.4706 20.0374 12.5129C20.0884 12.5203 20.1643 12.534 20.2054 12.5415C20.3124 12.5627 21.0815 12.5614 21.2134 12.5403C21.5357 12.488 21.7821 12.432 21.9352 12.376C21.9489 12.371 21.9825 12.3598 22.0098 12.3523C22.2314 12.2851 22.6458 12.0873 22.8474 11.9541C22.8897 11.9255 22.9282 11.9031 22.9357 11.9031C22.9419 11.9031 22.9494 11.8993 22.9519 11.8931C22.9544 11.8881 23.0029 11.8508 23.0614 11.8097C23.3202 11.6305 23.589 11.3792 23.8193 11.1041L23.9201 10.9834V10.8901C23.9201 10.8378 23.9151 10.7955 23.9101 10.7955C23.9051 10.7955 23.8927 10.747 23.884 10.686C23.8666 10.5715 23.8317 10.3985 23.8093 10.3189C23.8018 10.294 23.7906 10.2541 23.7844 10.2305C23.7794 10.2081 23.7645 10.1708 23.7533 10.1484C23.7421 10.126 23.7334 10.1011 23.7334 10.0948C23.7334 10.0451 23.5355 9.70159 23.4173 9.54478C23.3153 9.41038 23.1012 9.20255 22.9681 9.10921C22.9208 9.07561 22.8797 9.04325 22.8772 9.03828C22.8747 9.03205 22.8685 9.02832 22.8623 9.02832C22.8561 9.02832 22.8113 9.00468 22.7602 8.97481C22.6383 8.90387 22.53 8.8516 22.4018 8.80431C22.2214 8.73587 22.1592 8.71969 22.041 8.70849C21.9825 8.70351 21.9688 8.70724 21.9489 8.7284C21.9352 8.74333 21.9202 8.75453 21.9153 8.75453C21.909 8.75453 21.8667 8.77818 21.8207 8.80805C21.7211 8.87152 21.6328 8.91258 21.425 8.99099C21.4113 8.99596 21.3839 9.00716 21.3652 9.01463C21.3466 9.0221 21.3142 9.02832 21.2943 9.02832C21.2744 9.02832 21.2557 9.0333 21.252 9.03952C21.2445 9.05072 21.2283 9.05321 20.9956 9.08308C20.7405 9.11668 20.402 9.10299 20.1867 9.05321C20.1556 9.04574 20.1083 9.03454 20.081 9.02832C19.9366 8.99845 19.6641 8.87649 19.516 8.77569C19.4836 8.75329 19.445 8.7284 19.4301 8.71969C19.4027 8.70475 19.3007 8.69853 19.2882 8.71222Z"
    fill="#AA0000"
  />
  <path
    d="M6.92684 12.8192C6.85217 12.8354 6.77875 12.8553 6.76506 12.8602C6.75137 12.8665 6.7016 12.8864 6.65306 12.905C6.41662 12.9959 6.15529 13.1813 6.00346 13.3667C5.98231 13.3941 5.95244 13.429 5.93626 13.4451C5.90142 13.4812 5.75084 13.7301 5.75084 13.75C5.75084 13.7587 5.74586 13.7699 5.74089 13.7762C5.73218 13.7874 5.68489 13.8969 5.65751 13.9753C5.64755 14.0014 5.63386 14.0599 5.61146 14.1619C5.59155 14.2528 5.58533 14.6697 5.60151 14.7593C5.63138 14.9235 5.64133 14.9721 5.65129 14.9957C5.65626 15.0094 5.67618 15.0679 5.69484 15.1264C5.74711 15.2857 5.89395 15.5831 5.92755 15.5968C5.93377 15.5993 5.93751 15.608 5.93751 15.6154C5.93751 15.6565 6.22871 15.985 6.34693 16.0759C6.49377 16.1916 6.72524 16.3198 6.85217 16.3584C6.87955 16.3671 6.91191 16.3783 6.92311 16.3845C6.93555 16.3907 6.96044 16.3957 6.98035 16.3957C6.99902 16.3957 7.02142 16.4019 7.02888 16.4094C7.05004 16.4306 7.45946 16.4256 7.56151 16.4019C7.61004 16.3907 7.66231 16.3783 7.67973 16.3746C7.69715 16.3708 7.72826 16.3609 7.74817 16.3522C7.76933 16.3434 7.81662 16.3235 7.85395 16.3074C7.89128 16.2924 7.92862 16.275 7.93484 16.27C7.94604 16.2626 8.01448 16.2227 8.07173 16.1916C8.13395 16.158 8.29448 16.0274 8.38159 15.9402C8.47742 15.8444 8.65039 15.6291 8.65039 15.6067C8.65039 15.6005 8.66284 15.5794 8.67902 15.5582C8.70764 15.5171 8.71262 15.5084 8.77235 15.3914C8.87439 15.1911 8.94906 14.9671 8.97768 14.7655C9.00257 14.5962 8.99013 14.142 8.96026 14.1234C8.95404 14.1196 8.94906 14.0985 8.94906 14.0748C8.94906 14.0512 8.94408 14.0288 8.93661 14.025C8.93039 14.0213 8.92417 14.0076 8.92417 13.9952C8.92417 13.974 8.87813 13.8558 8.82959 13.75C8.79724 13.6803 8.67528 13.4787 8.66159 13.4738C8.65537 13.4713 8.65039 13.4626 8.65039 13.4551C8.65039 13.4339 8.35795 13.1477 8.2895 13.1017C8.25839 13.0805 8.21359 13.0519 8.18995 13.0382C8.1663 13.0245 8.11031 12.9934 8.06799 12.9685C8.02444 12.9436 7.98337 12.9237 7.97715 12.9237C7.96968 12.9237 7.94106 12.9125 7.91368 12.8988C7.88506 12.8851 7.85395 12.8739 7.84524 12.8739C7.83653 12.8739 7.81911 12.869 7.80666 12.8615C7.79546 12.8553 7.73573 12.8378 7.67351 12.8229C7.58017 12.7993 7.51919 12.7943 7.31262 12.7906C7.08364 12.7881 7.05253 12.7893 6.92684 12.8192Z"
    fill="#AA0000"
  />
  <path
    d="M33.0356 12.8193C32.9609 12.8354 32.8875 12.8553 32.8738 12.8603C32.8601 12.8665 32.8352 12.8765 32.8178 12.884C32.8004 12.8902 32.7668 12.9039 32.7431 12.9126C32.544 12.9835 32.2553 13.1926 32.1122 13.3668C32.091 13.3942 32.0612 13.429 32.045 13.4452C32.0101 13.4813 31.8596 13.7302 31.8596 13.7501C31.8596 13.7588 31.8546 13.77 31.8496 13.7762C31.8409 13.7874 31.7936 13.8969 31.7662 13.9753C31.7563 14.0015 31.7438 14.0537 31.7202 14.162C31.704 14.2329 31.7003 14.7095 31.714 14.7842C31.7426 14.931 31.7513 14.9733 31.76 14.9957C31.765 15.0094 31.7824 15.0592 31.7973 15.1077C31.8434 15.2496 31.9156 15.4101 31.979 15.5097C32.0027 15.5458 32.0213 15.5806 32.0213 15.5868C32.0213 15.5943 32.0276 15.5993 32.0338 15.5993C32.0413 15.5993 32.0462 15.6043 32.0462 15.6117C32.0462 15.6565 32.3287 15.9776 32.4557 16.0759C32.6025 16.1916 32.834 16.3198 32.9609 16.3584C32.9883 16.3671 33.0206 16.3783 33.0318 16.3845C33.0443 16.3907 33.0704 16.3957 33.0903 16.3957C33.1115 16.3957 33.1301 16.4007 33.1339 16.4069C33.1513 16.4355 33.5732 16.4281 33.6951 16.397C33.7225 16.3895 33.7623 16.3808 33.7822 16.377C33.8034 16.3721 33.837 16.3609 33.8569 16.3522C33.8781 16.3434 33.9253 16.3235 33.9627 16.3074C34 16.2924 34.0373 16.275 34.0436 16.27C34.0548 16.2626 34.1232 16.2227 34.1805 16.1916C34.219 16.1705 34.3497 16.0709 34.4094 16.0162C34.6571 15.7922 34.8462 15.5147 34.9632 15.2073C34.9893 15.1389 35.0155 15.0717 35.0205 15.058C35.0267 15.0443 35.0341 15.0157 35.0391 14.9957C35.0429 14.9746 35.0528 14.936 35.059 14.9086C35.1001 14.7493 35.1175 14.4532 35.0964 14.274C35.0877 14.2055 35.0752 14.1396 35.069 14.1284C35.0628 14.1159 35.0578 14.0898 35.0578 14.0699C35.0578 14.0487 35.0528 14.0288 35.0453 14.0251C35.0391 14.0214 35.0329 14.0077 35.0329 13.9952C35.0329 13.9579 34.8836 13.6157 34.8587 13.5958C34.8537 13.592 34.8288 13.556 34.8027 13.5149C34.7193 13.383 34.4306 13.1067 34.3111 13.0457C34.2937 13.037 34.2775 13.0271 34.2738 13.0233C34.2613 13.0109 34.1182 12.9375 34.056 12.9113C34.0361 12.9026 34.0087 12.8914 33.9975 12.8852C33.9851 12.879 33.9664 12.874 33.9565 12.874C33.9465 12.874 33.9278 12.869 33.9154 12.8616C33.9042 12.8553 33.8445 12.8379 33.7822 12.823C33.6889 12.7994 33.6279 12.7944 33.4213 12.7906C33.1924 12.7882 33.1613 12.7894 33.0356 12.8193Z"
    fill="#AA0000"
  />
  <path
    d="M5.8317 16.5102C5.66495 16.5563 5.6077 16.5724 5.58281 16.5824C5.56913 16.5874 5.54424 16.5973 5.52681 16.6036C5.48948 16.6172 5.2493 16.7367 5.19704 16.7666C5.15099 16.7927 5.07881 16.8437 5.05641 16.8649C5.0477 16.8736 5.03526 16.8811 5.02904 16.8811C5.01659 16.8811 4.94193 16.942 4.82495 17.0466C4.57979 17.2668 4.35206 17.6016 4.23757 17.9102C4.22139 17.9575 4.20148 18.006 4.19526 18.0197C4.19028 18.0334 4.18157 18.0608 4.17659 18.0819C4.17286 18.1018 4.16415 18.1417 4.15668 18.169C4.13926 18.2375 4.12184 18.3333 4.10317 18.4702C4.09446 18.5337 4.08077 18.5922 4.0733 18.6021C4.06584 18.6108 4.05588 18.6407 4.05215 18.6668C4.04468 18.7116 4.04966 18.7228 4.0957 18.7788C4.12433 18.8124 4.16415 18.8634 4.18655 18.8896C4.33215 19.07 4.57606 19.3065 4.78264 19.4695C4.85357 19.5255 4.92201 19.579 4.93446 19.5902C4.96308 19.6138 5.1485 19.7333 5.23437 19.7843C5.42975 19.9 5.49695 19.9349 5.75081 20.0444C5.78193 20.0581 5.81801 20.0743 5.8317 20.0805C5.87526 20.0992 6.15277 20.1875 6.23615 20.2099C6.28095 20.2211 6.33695 20.2348 6.36059 20.241C6.58086 20.297 6.87455 20.3356 7.16948 20.3468C7.4781 20.358 7.88628 20.3219 8.1837 20.2547C8.21108 20.2485 8.25339 20.2398 8.27704 20.2348C8.31935 20.2261 8.70637 20.1016 8.75615 20.0805C8.76984 20.0743 8.84575 20.0419 8.92415 20.0096C9.00255 19.976 9.13073 19.9137 9.20913 19.8714C9.28753 19.8279 9.35348 19.793 9.35597 19.793C9.36095 19.793 9.61357 19.6275 9.62104 19.6188C9.62477 19.6151 9.65837 19.5902 9.6957 19.5628C9.92219 19.4023 10.2345 19.1086 10.405 18.8983C10.4287 18.8684 10.4635 18.8274 10.4822 18.8062C10.5133 18.7701 10.517 18.7564 10.517 18.6755C10.517 18.627 10.5121 18.5859 10.5046 18.5859C10.4984 18.5859 10.4909 18.5673 10.4872 18.5449C10.4834 18.5237 10.4747 18.4602 10.4673 18.4055C10.4523 18.2997 10.4324 18.2014 10.4175 18.1504C10.4125 18.133 10.4013 18.0944 10.3926 18.0633C10.3752 18.001 10.2694 17.7285 10.2557 17.7086C10.247 17.6962 10.2308 17.6688 10.1574 17.5406C10.0603 17.3676 9.86868 17.1399 9.70068 16.9993C9.66086 16.9657 9.62477 16.9346 9.62104 16.9308C9.61233 16.9209 9.43935 16.8039 9.38459 16.7716C9.31366 16.7292 9.09713 16.6197 9.08468 16.6197C9.07722 16.6197 9.04859 16.6085 9.02122 16.5948C8.99259 16.5812 8.96024 16.57 8.94904 16.57C8.93784 16.57 8.92415 16.565 8.91668 16.5588C8.90175 16.5438 8.64788 16.4828 8.60184 16.4828C8.58193 16.4828 8.56077 16.4891 8.55704 16.4953C8.54708 16.5115 8.41642 16.5948 8.40148 16.5948C8.39402 16.5948 8.38904 16.5998 8.38904 16.6048C8.38904 16.616 8.18122 16.7156 8.10282 16.7442C8.07917 16.7516 8.04806 16.7641 8.03437 16.7703C8.00948 16.7815 7.84148 16.8251 7.69837 16.8574C7.64486 16.8699 7.52788 16.8748 7.28148 16.8748C6.94921 16.8748 6.93553 16.8736 6.78993 16.84C6.57588 16.789 6.49499 16.7616 6.32575 16.6782C6.2685 16.6508 6.20255 16.616 6.1789 16.5998C6.15526 16.5836 6.1341 16.57 6.13161 16.57C6.12913 16.57 6.09801 16.55 6.06193 16.5264C5.98726 16.4766 5.95988 16.4741 5.8317 16.5102Z"
    fill="#AA0000"
  />
  <path
    d="M31.9401 16.5099C31.7198 16.5709 31.7149 16.5721 31.6352 16.6032C31.5929 16.6207 31.3527 16.7389 31.3054 16.7663C31.2569 16.7936 31.1872 16.8434 31.1573 16.8708C31.1437 16.8832 31.1262 16.8932 31.1175 16.8932C31.1088 16.8932 31.1001 16.8969 31.0976 16.9019C31.0964 16.9081 31.0603 16.9392 31.0192 16.9741C30.7118 17.2292 30.4953 17.5303 30.3534 17.895C30.3323 17.9497 30.3099 18.0057 30.3037 18.0194C30.2987 18.0331 30.29 18.0605 30.285 18.0816C30.2813 18.1015 30.2725 18.1414 30.2651 18.1687C30.2439 18.2596 30.229 18.3417 30.2153 18.455C30.2078 18.5159 30.1941 18.5794 30.1854 18.5943C30.1755 18.6093 30.1643 18.6429 30.1605 18.669C30.1531 18.7113 30.1581 18.7225 30.2041 18.7785C30.2327 18.8121 30.2638 18.8519 30.275 18.8656C30.4443 19.0784 30.7492 19.3684 30.9943 19.5501C31.0217 19.57 31.0466 19.5911 31.0503 19.5949C31.059 19.6048 31.2631 19.7367 31.3428 19.784C31.5381 19.8997 31.6053 19.9346 31.8592 20.0441C31.8903 20.0578 31.9264 20.074 31.9401 20.0802C31.9837 20.0988 32.2612 20.1872 32.3445 20.2096C32.3893 20.2208 32.4453 20.2345 32.469 20.2407C32.6893 20.2967 32.9829 20.3353 33.2779 20.3465C33.6574 20.3614 34.1365 20.3054 34.4974 20.2059C34.5634 20.1872 34.7961 20.1076 34.8583 20.0814C35.1682 19.9545 35.4059 19.8338 35.6112 19.6994C35.6734 19.6583 35.7257 19.6222 35.7294 19.6185C35.7332 19.6148 35.7668 19.5899 35.8041 19.5625C36.0306 19.402 36.3517 19.1008 36.5134 18.8992C36.5371 18.8693 36.5719 18.827 36.5906 18.8059C36.6217 18.7698 36.6254 18.7561 36.6254 18.6752C36.6254 18.6267 36.6205 18.5856 36.6155 18.5856C36.6093 18.5856 36.5943 18.5222 36.5831 18.445C36.5607 18.3006 36.5421 18.2036 36.5259 18.1501C36.5209 18.1326 36.5097 18.0941 36.501 18.063C36.4736 17.9609 36.3728 17.722 36.3243 17.6411C36.2981 17.5988 36.277 17.5602 36.277 17.5565C36.277 17.549 36.1936 17.4233 36.1426 17.3536C36.0816 17.2703 35.8925 17.0649 35.8352 17.0201C35.8078 16.999 35.7717 16.9679 35.7543 16.9529C35.7232 16.9231 35.5726 16.8185 35.493 16.7712C35.4432 16.7414 35.2043 16.6219 35.157 16.6032C35.1396 16.597 35.1159 16.5871 35.1047 16.5808C35.0923 16.5746 35.0724 16.5696 35.0599 16.5696C35.0475 16.5696 35.0325 16.5647 35.0251 16.5584C35.0101 16.5435 34.7563 16.4825 34.7102 16.4825C34.6903 16.4825 34.6692 16.4888 34.6654 16.495C34.6555 16.5112 34.5248 16.5945 34.5099 16.5945C34.5024 16.5945 34.4974 16.5995 34.4974 16.6045C34.4974 16.6157 34.2896 16.7152 34.2112 16.7439C34.1876 16.7513 34.1565 16.7638 34.1428 16.77C34.1117 16.7837 33.9362 16.831 33.8628 16.8459C33.7358 16.8708 33.5181 16.882 33.2841 16.877C33.0377 16.8708 32.9157 16.8534 32.7179 16.7924C32.586 16.7526 32.2948 16.6194 32.2674 16.5858C32.2599 16.5771 32.25 16.5696 32.2437 16.5696C32.2375 16.5696 32.2052 16.5497 32.1716 16.5261C32.1019 16.4751 32.0708 16.4738 31.9401 16.5099Z"
    fill="#AA0000"
  />
  <path
    d="M20.1477 19.599C20.144 19.6027 20.1116 19.6102 20.0743 19.6177C19.9312 19.6426 19.7582 19.6986 19.645 19.7571C19.5404 19.8106 19.4707 19.8491 19.4571 19.8616C19.4496 19.8678 19.411 19.8964 19.3724 19.9238C19.2915 19.981 19.1484 20.1154 19.0638 20.2162C18.973 20.3245 18.8709 20.4987 18.8025 20.6642C18.795 20.6817 18.7851 20.7053 18.7788 20.7165C18.7726 20.7289 18.7676 20.7488 18.7676 20.7613C18.7676 20.7737 18.7627 20.7887 18.7577 20.7949C18.7515 20.8024 18.7403 20.8384 18.7328 20.8758C18.7253 20.9131 18.7116 20.9753 18.7029 21.0127C18.683 21.0998 18.683 21.4781 18.7029 21.5789C18.7116 21.6199 18.7241 21.6846 18.7315 21.722C18.739 21.7593 18.7502 21.8016 18.7552 21.8153C18.7602 21.829 18.7726 21.8651 18.7813 21.8962C18.79 21.9273 18.8012 21.9572 18.805 21.9646C18.8099 21.9709 18.8211 21.9995 18.8299 22.0269C18.8697 22.1525 19.0414 22.4549 19.1422 22.5744C19.2343 22.6852 19.411 22.8668 19.4259 22.8668C19.4309 22.8668 19.4471 22.8793 19.4645 22.8942C19.4969 22.9241 19.6126 23.0025 19.6811 23.0411C19.7035 23.0535 19.7333 23.0697 19.7458 23.0771C19.7893 23.1008 19.9063 23.1506 19.9561 23.1655C19.9835 23.1742 20.0158 23.1854 20.027 23.1916C20.0395 23.1979 20.0656 23.2028 20.0855 23.2028C20.1067 23.2028 20.1266 23.2078 20.1303 23.2153C20.1353 23.2227 20.2211 23.2277 20.3456 23.2277C20.541 23.2277 20.5932 23.2215 20.7836 23.1792C20.8645 23.1605 21.1607 23.0162 21.2291 22.9602C21.4818 22.7561 21.5826 22.654 21.707 22.4749C21.7904 22.3554 21.8165 22.3106 21.8875 22.1637C21.9173 22.1015 21.9472 22.0418 21.9547 22.0306C21.9609 22.0182 21.9659 21.9982 21.9659 21.9858C21.9659 21.9734 21.9708 21.9584 21.9758 21.951C21.9883 21.9385 22.0156 21.8514 22.0517 21.7095C22.109 21.4818 22.1139 21.1035 22.0592 20.9131C22.0355 20.831 21.9982 20.7152 21.982 20.6767C21.8725 20.4203 21.768 20.2635 21.5875 20.0843C21.4681 19.9661 21.315 19.8429 21.2864 19.8429C21.2814 19.8429 21.2603 19.8305 21.2391 19.8143C21.198 19.7832 21.1483 19.7583 21.0574 19.7235C21.0263 19.7123 20.9964 19.6973 20.9902 19.6911C20.9827 19.6861 20.9653 19.6811 20.9516 19.6811C20.9367 19.6811 20.9205 19.6774 20.9155 19.6724C20.9068 19.6625 20.8309 19.6413 20.7276 19.6164C20.6667 19.6027 20.1602 19.5878 20.1477 19.599Z"
    fill="#AA0000"
  />
  <path
    d="M18.9734 23.3018C18.9597 23.3067 18.8925 23.3279 18.8241 23.3466C18.7556 23.3652 18.6947 23.3839 18.6872 23.3889C18.681 23.3938 18.6499 23.405 18.6187 23.4138C18.4383 23.4698 18.0886 23.6938 17.9032 23.873C17.612 24.153 17.4763 24.3645 17.2984 24.8138C17.2934 24.8275 17.2859 24.8524 17.2835 24.8698C17.2797 24.8872 17.2648 24.9507 17.2511 25.0129C17.2038 25.2108 17.2001 25.2294 17.2001 25.2966C17.2001 25.3377 17.1926 25.3726 17.1789 25.3912C17.1515 25.4323 17.1366 25.5144 17.1553 25.5331C17.164 25.5418 17.2026 25.5903 17.2436 25.6414C17.444 25.894 17.6319 26.0732 18.0351 26.393C18.1795 26.5088 18.5354 26.7128 18.7619 26.8099C18.8303 26.8398 18.9037 26.8709 18.9236 26.8809C19.0767 26.9481 19.5011 27.0638 19.7139 27.0974C19.7649 27.1049 19.8408 27.1173 19.8819 27.1248C19.9814 27.1434 20.463 27.1559 20.6696 27.1447C20.8463 27.1347 21.1051 27.0999 21.2819 27.0601C21.471 27.0177 21.6403 26.968 21.7075 26.9344C21.7199 26.9281 21.7373 26.9232 21.7473 26.9232C21.7921 26.9232 22.143 26.7664 22.3658 26.6469C22.5051 26.5722 22.8872 26.3159 22.937 26.2636C22.9407 26.2599 22.9768 26.2287 23.0179 26.1951C23.1137 26.1167 23.3949 25.8355 23.4907 25.7222C23.5318 25.6737 23.5754 25.6239 23.5878 25.6102C23.6065 25.5891 23.6102 25.5704 23.604 25.4858C23.6015 25.431 23.5928 25.3526 23.5866 25.3116C23.5791 25.2705 23.5679 25.2008 23.5604 25.156C23.5542 25.1112 23.5443 25.0614 23.5405 25.044C23.5368 25.0266 23.5268 24.988 23.5194 24.9569C23.5131 24.9258 23.5032 24.8897 23.497 24.876C23.492 24.8623 23.4721 24.8063 23.4534 24.7516C23.4099 24.6246 23.3364 24.4728 23.2531 24.3384C23.2157 24.2799 23.1859 24.2276 23.1859 24.2227C23.1859 24.2164 23.1809 24.2102 23.1759 24.2077C23.1709 24.2052 23.1498 24.1816 23.1299 24.1542C23.044 24.0397 22.7341 23.7249 22.7067 23.7249C22.703 23.7249 22.6682 23.7 22.6271 23.6689C22.5873 23.6378 22.5499 23.6129 22.545 23.6129C22.54 23.6129 22.5126 23.5979 22.484 23.578C22.3396 23.4834 22.0559 23.3652 21.8319 23.3092C21.7187 23.2806 21.6726 23.2831 21.6328 23.3204C21.6141 23.3378 21.593 23.3515 21.5843 23.3515C21.5755 23.3515 21.5681 23.3565 21.5681 23.364C21.5681 23.3702 21.5619 23.3764 21.5544 23.3764C21.5469 23.3764 21.5171 23.3926 21.4872 23.4138C21.4573 23.4337 21.4299 23.4511 21.4262 23.4511C21.42 23.4511 21.247 23.5295 21.2047 23.5519C21.1923 23.5581 21.1748 23.5631 21.1661 23.5631C21.1562 23.5631 21.1313 23.5718 21.1101 23.583C21.089 23.593 21.0504 23.6054 21.0243 23.6079C20.9981 23.6116 20.9658 23.6191 20.9521 23.6253C20.9384 23.6303 20.8849 23.644 20.8339 23.6552C20.7156 23.6826 20.2527 23.6962 20.0934 23.6776C19.9391 23.6602 19.6852 23.5992 19.5707 23.5519C19.4886 23.5183 19.2534 23.3963 19.2534 23.3876C19.2534 23.3814 19.2472 23.3764 19.241 23.3764C19.2335 23.3764 19.1999 23.3565 19.1651 23.3329C19.0991 23.2881 19.0319 23.2769 18.9734 23.3018Z"
    fill="#AA0000"
  />
</svg>